<svg width="18" height="18" viewBox="0 0 18 18" fill="none" xmlns="http://www.w3.org/2000/svg">
<g clip-path="url(#clip0_2_126)">
<path d="M9.00249 18.0019C13.9728 18.0019 18.0021 13.9727 18.0021 9.00231C18.0021 4.03195 13.9728 0.00268555 9.00249 0.00268555C4.03214 0.00268555 0.00286865 4.03195 0.00286865 9.00231C0.00286865 13.9727 4.03214 18.0019 9.00249 18.0019Z" fill="white"/>
<path d="M17.4856 5.99927H11.9404C12.1813 7.92182 12.1827 10.0402 11.9451 11.9651H17.4974C17.8216 11.0365 17.9997 10.0392 17.9997 9.00011C17.9999 7.94739 17.8176 6.93788 17.4856 5.99927Z" fill="#2B479D"/>
<path d="M11.9404 5.99928H17.4855C17.4846 5.99643 17.4838 5.99403 17.4826 5.99145C16.3309 2.74368 13.3679 0.354176 9.80807 0.0369873C11.1858 0.79213 11.5882 3.18463 11.9404 5.99928Z" fill="#EFECEC"/>
<path d="M9.80838 17.9626C13.3746 17.6449 16.3417 15.2471 17.489 11.9907C17.492 11.982 17.4946 11.9734 17.4977 11.9651H11.9452C11.5958 14.795 11.1916 17.2043 9.80838 17.9626Z" fill="#E63026"/>
<path d="M0 8.99999C0 10.0392 0.178488 11.0364 0.502326 11.965H12.4083C12.6462 10.0399 12.6445 7.92169 12.4039 5.99915H0.514297C0.182326 6.93779 0 7.94731 0 8.99999Z" fill="#3757A6"/>
<path d="M0.517102 5.9914C0.516266 5.99395 0.515392 5.99638 0.514252 5.99923H12.4039C12.0515 3.18454 11.1858 0.792079 9.80822 0.0369363C9.54176 0.0133381 9.27234 4.33122e-10 8.9998 4.33122e-10C5.08466 -3.79999e-05 1.75527 2.50042 0.517102 5.9914Z" fill="#EFEFEF"/>
<path d="M12.4083 11.9651H0.502319C0.505321 11.9735 0.508133 11.982 0.510983 11.9907C1.74421 15.4906 5.0784 17.9999 8.9998 17.9999C9.27238 17.9999 9.5418 17.9865 9.80822 17.9626C11.1916 17.2044 12.0589 14.795 12.4083 11.9651Z" fill="#E73B36"/>
</g>
<defs>
<clipPath id="clip0_2_126">
<rect width="18" height="18" fill="white"/>
</clipPath>
</defs>
</svg>
