<svg width="18" height="18" viewBox="0 0 18 18" fill="none" xmlns="http://www.w3.org/2000/svg">
<g clip-path="url(#clip0_2_139)">
<path d="M8.99998 18C11.8797 18 14.4411 16.6464 16.0884 14.5422H11.3483C10.7364 16.582 10.3948 18 8.99998 18Z" fill="#C42126"/>
<path d="M8.46577 17.9846C8.46421 17.9846 8.4628 17.9843 8.46124 17.9843C8.4628 17.9843 8.46435 17.9846 8.46577 17.9846Z" fill="#C42126"/>
<path d="M11.3483 3.45774H16.0886C14.4411 1.35386 11.8796 0 8.99998 0C10.3948 0 10.7364 1.41793 11.3483 3.45774Z" fill="#C42126"/>
<path d="M8.46124 0.0156552C8.4628 0.0156552 8.46421 0.0152829 8.46577 0.0152829C8.46435 0.0152298 8.4628 0.0152298 8.46124 0.0156552Z" fill="#C42126"/>
<path d="M16.0887 3.45776H11.3483C12.305 6.64638 12.305 11.3541 11.3483 14.5422H16.0882C17.2848 13.0143 18 11.0915 18 9.00008C18.0001 6.90885 17.2849 4.98586 16.0887 3.45776Z" fill="#FFC40C"/>
<path d="M8.99998 17.9995C8.82092 17.9995 8.643 17.9944 8.46622 17.9845C8.64551 17.9941 8.82377 17.9995 8.99998 17.9995Z" fill="#C42126"/>
<path d="M8.46622 0.0152775C8.64296 0.00508024 8.82092 0 8.99998 0C8.82377 0 8.64551 0.00563245 8.46622 0.0152775Z" fill="#C42126"/>
<path d="M12.0103 14.5422H1.91179C3.4555 16.5143 5.80255 17.827 8.46121 17.9842C8.46292 17.9842 8.46448 17.9845 8.46619 17.9845C8.64297 17.9947 8.82089 18 8.99995 18C10.3948 18 11.3983 16.582 12.0103 14.5422Z" fill="#D32030"/>
<path d="M1.91179 3.45774H12.0103C11.3983 1.41793 10.3948 0 8.99999 0C8.82092 0 8.643 0.00524412 8.46622 0.0157704C8.46451 0.0157704 8.46296 0.0160364 8.46125 0.0160364C5.80255 0.173094 3.4555 1.48603 1.91179 3.45774Z" fill="#D32030"/>
<path d="M4.57764e-05 9.00008C4.57764e-05 11.0915 0.715261 13.0143 1.91179 14.5422H12.0103C12.967 11.3539 12.967 6.64619 12.0103 3.45776H1.91179C0.715261 4.98586 4.57764e-05 6.90885 4.57764e-05 9.00008Z" fill="#FFD034"/>
</g>
<defs>
<clipPath id="clip0_2_139">
<rect width="18" height="18" fill="white"/>
</clipPath>
</defs>
</svg>
