<svg width="25" height="25" viewBox="0 0 25 25" fill="none" xmlns="http://www.w3.org/2000/svg">
<g clip-path="url(#clip0_2_95)">
<path d="M0.58079 25C0.44041 25 0.303843 24.9445 0.202563 24.8421C0.0690488 24.707 0.0175504 24.511 0.0677137 24.3277L1.69297 18.3928C0.681117 16.563 0.147632 14.4932 0.148394 12.392C0.151256 5.55897 5.71194 0 12.5444 0C15.8585 0.00133515 18.9724 1.29223 21.3129 3.63445C23.653 5.97687 24.9413 9.09061 24.9403 12.402C24.9373 19.2352 19.3766 24.7946 12.5444 24.7946C12.5444 24.7946 12.5393 24.7946 12.5391 24.7946C10.5434 24.7938 8.56495 24.3074 6.80332 23.3862L0.71564 24.9826C0.671008 24.9943 0.625613 25 0.58079 25Z" fill="#E5E5E5"/>
<path d="M0.580788 24.4681L2.26383 18.322C1.22566 16.5232 0.679588 14.4827 0.680351 12.3923C0.683022 5.85253 6.00491 0.531982 12.5444 0.531982C15.7179 0.533318 18.6966 1.76852 20.9366 4.01041C23.1764 6.25231 24.4095 9.23235 24.4083 12.4018C24.4055 18.9413 19.0828 24.2626 12.5444 24.2626C12.5441 24.2626 12.5446 24.2626 12.5444 24.2626H12.5393C10.5537 24.2619 8.60291 23.7639 6.87008 22.8188L0.580788 24.4681ZM7.16133 20.6717L7.52163 20.8851C9.0353 21.7835 10.7708 22.2586 12.5406 22.2595H12.5444C17.9792 22.2595 22.4028 17.8368 22.4051 12.401C22.406 9.76679 21.3814 7.28972 19.5196 5.42643C17.6577 3.56314 15.1821 2.53641 12.5481 2.53527C7.10888 2.53527 2.68555 6.95746 2.68345 12.393C2.68269 14.2557 3.20377 16.0696 4.19102 17.6394L4.42562 18.0124L3.42922 21.6501L7.16133 20.6717Z" fill="white"/>
<path d="M0.993347 24.0539L2.61822 18.1204C1.61572 16.3839 1.08871 14.4138 1.08929 12.396C1.09177 6.08271 6.22959 0.946411 12.5423 0.946411C15.6063 0.947746 18.482 2.14022 20.644 4.30449C22.8065 6.46876 23.9967 9.34561 23.9956 12.405C23.9929 18.7185 18.8549 23.8554 12.5429 23.8554C12.5423 23.8554 12.5431 23.8554 12.5429 23.8554H12.5378C10.6211 23.8546 8.73756 23.3736 7.06482 22.4619L0.993347 24.0539Z" fill="#64B161"/>
<path d="M0.580788 24.4681L2.26383 18.322C1.22566 16.5232 0.679588 14.4827 0.680351 12.3923C0.683022 5.85253 6.00491 0.531982 12.5444 0.531982C15.7179 0.533318 18.6966 1.76852 20.9366 4.01041C23.1764 6.25231 24.4095 9.23235 24.4083 12.4018C24.4055 18.9413 19.0828 24.2626 12.5444 24.2626C12.5441 24.2626 12.5446 24.2626 12.5444 24.2626H12.5393C10.5537 24.2619 8.60291 23.7639 6.87008 22.8188L0.580788 24.4681ZM7.16133 20.6717L7.52163 20.8851C9.0353 21.7835 10.7708 22.2586 12.5406 22.2595H12.5444C17.9792 22.2595 22.4028 17.8368 22.4051 12.401C22.406 9.76679 21.3814 7.28972 19.5196 5.42643C17.6577 3.56314 15.1821 2.53641 12.5481 2.53527C7.10888 2.53527 2.68555 6.95746 2.68345 12.393C2.68269 14.2557 3.20377 16.0696 4.19102 17.6394L4.42562 18.0124L3.42922 21.6501L7.16133 20.6717Z" fill="white"/>
<path fill-rule="evenodd" clip-rule="evenodd" d="M9.57928 7.43386C9.35726 6.94023 9.12342 6.93032 8.91209 6.92173C8.73928 6.91429 8.54149 6.91468 8.34408 6.91468C8.14648 6.91468 7.82528 6.98906 7.55367 7.28566C7.28188 7.58225 6.51588 8.29941 6.51588 9.75796C6.51588 11.2167 7.57828 12.626 7.72648 12.824C7.87468 13.0218 9.77726 16.1106 12.7903 17.2989C15.2945 18.2865 15.8039 18.09 16.3475 18.0406C16.8911 17.9912 18.1013 17.3235 18.3483 16.6313C18.5955 15.9391 18.5955 15.3459 18.5213 15.2217C18.4471 15.0983 18.2495 15.0241 17.9531 14.8759C17.6567 14.7277 16.1993 14.0104 15.9275 13.9116C15.6557 13.8126 15.4581 13.7634 15.2605 14.0602C15.0627 14.3566 14.4951 15.0241 14.3221 15.2217C14.1491 15.4199 13.9761 15.4447 13.6797 15.2963C13.3833 15.1477 12.4285 14.8349 11.2959 13.825C10.4147 13.0394 9.8196 12.0689 9.64661 11.7721C9.4738 11.4757 9.64374 11.3292 9.77688 11.1673C10.0166 10.8757 10.4189 10.3513 10.5177 10.1537C10.6165 9.95575 10.5671 9.78276 10.4931 9.63436C10.4189 9.48616 9.84268 8.02018 9.57928 7.43386Z" fill="white"/>
</g>
<defs>
<clipPath id="clip0_2_95">
<rect width="25" height="25" fill="white"/>
</clipPath>
</defs>
</svg>
